<?xml version="1.0" standalone="no"?><!DOCTYPE svg PUBLIC "-//W3C//DTD SVG 1.1//EN" "http://www.w3.org/Graphics/SVG/1.1/DTD/svg11.dtd"><svg t="1598066832317" class="icon" viewBox="0 0 1024 1024" version="1.1" xmlns="http://www.w3.org/2000/svg" p-id="8088" xmlns:xlink="http://www.w3.org/1999/xlink" width="64" height="64"><defs><style type="text/css"></style></defs><path d="M699.648 846.592l-393.472 4.352a25.6 25.6 0 0 0 0 51.2l393.472-4.352a25.6 25.6 0 0 0 0-51.2zM634.368 141.312H371.2a174.336 174.336 0 0 0-174.336 174.336v263.168a174.592 174.592 0 0 0 174.336 174.592h263.168a174.848 174.848 0 0 0 174.592-174.592V315.648a174.592 174.592 0 0 0-174.592-174.336z m-263.168 51.2h263.168a123.392 123.392 0 0 1 123.392 123.136v209.92l-46.08-36.096a111.104 111.104 0 0 0-128-6.656l-35.328 22.272a40.704 40.704 0 0 1-31.232 4.864 42.496 42.496 0 0 1-25.6-21.248l-36.096-66.048a83.712 83.712 0 0 0-145.152-5.632l-62.208 111.36v-212.736a123.392 123.392 0 0 1 123.136-123.136z m263.168 509.696H371.2a123.136 123.136 0 0 1-116.992-86.272 25.6 25.6 0 0 0 8.704-8.96l90.368-163.072a33.28 33.28 0 0 1 28.928-14.848 32.512 32.512 0 0 1 27.648 18.176l36.096 66.048a92.672 92.672 0 0 0 58.624 46.08 89.6 89.6 0 0 0 71.168-11.008l35.328-22.272a60.16 60.16 0 0 1 68.864 3.584l69.376 54.272a22.784 22.784 0 0 0 7.424 3.84 122.88 122.88 0 0 1-122.368 114.432z" p-id="8089" fill="#bfbfbf"></path><path d="M642.56 288.256m-46.592 0a46.592 46.592 0 1 0 93.184 0 46.592 46.592 0 1 0-93.184 0Z" p-id="8090" fill="#bfbfbf"></path></svg>