<?xml version="1.0" standalone="no"?><!DOCTYPE svg PUBLIC "-//W3C//DTD SVG 1.1//EN" "http://www.w3.org/Graphics/SVG/1.1/DTD/svg11.dtd"><svg t="1598067633365" class="icon" viewBox="0 0 1024 1024" version="1.1" xmlns="http://www.w3.org/2000/svg" p-id="13749" xmlns:xlink="http://www.w3.org/1999/xlink" width="64" height="64"><defs><style type="text/css"></style></defs><path d="M512.922 41.77l-66.466 92.314-96.007-60.927-24.001 112.623-112.623-20.31 20.31 112.623-112.623 24.001 60.927 96.007-92.314 66.466 92.314 64.62-60.927 96.007 112.623 25.849-20.31 110.777 112.623-18.463 24.001 110.777 96.007-60.927 66.466 92.314 64.62-92.314 96.007 60.927 25.849-110.777 110.777 18.463-18.463-110.777 110.777-25.849-60.927-96.007 92.314-64.62-92.314-66.466 60.927-96.007-110.777-24.001 18.463-112.623-110.777 20.31-25.849-112.623-96.007 60.927-64.62-92.314zM402.147 462.724v240.016h-36.925v-190.166c-22.155 25.847-46.158 49.85-70.159 70.159-9.233-12.924-16.615-24.001-22.155-31.387 48.003-40.618 92.314-90.468 127.393-149.548h-112.623v-35.079h131.086c5.539-7.386 9.233-14.771 12.924-22.155h36.925c-3.692 7.386-7.386 14.771-11.078 22.155h284.327v35.079h-300.944c-12.924 20.309-25.847 42.464-38.772 60.927zM749.247 580.884h-127.393v64.62c0 38.772-18.463 57.235-53.543 57.235-20.309 0-48.003 0-84.929 0-1.847-12.924-3.692-25.849-5.539-40.618 29.54 3.692 57.235 3.692 81.236 3.692 16.617 0 25.849-7.386 25.849-25.849v-59.081h-145.856v-33.233h145.856v-24.001l70.159-46.158h-190.167v-33.233h251.093v33.233l-94.161 59.081v11.078h127.393v33.233zM749.247 307.636h-127.393v35.078h-36.925v-35.078h-134.779v31.387h-36.925v-31.387h-127.393v-33.233h127.393v-42.464h36.925v42.464h134.779v-44.311h36.925v44.311h127.393v33.233z" p-id="13750" fill="#bfbfbf"></path></svg>