<?xml version="1.0" standalone="no"?><!DOCTYPE svg PUBLIC "-//W3C//DTD SVG 1.1//EN" "http://www.w3.org/Graphics/SVG/1.1/DTD/svg11.dtd"><svg t="1598067242548" class="icon" viewBox="0 0 1024 1024" version="1.1" xmlns="http://www.w3.org/2000/svg" p-id="9348" xmlns:xlink="http://www.w3.org/1999/xlink" width="64" height="64"><defs><style type="text/css"></style></defs><path d="M202.635 106.65h325.44a95.985 95.985 0 0 1 67.871 28.113l351.945 351.945c37.485 37.485 37.485 98.26 0 135.744l-325.44 325.44c-37.484 37.484-98.258 37.484-135.743 0L134.763 595.945a95.985 95.985 0 0 1-28.113-67.872V202.635c0-53.011 42.974-95.985 95.985-95.985z m0 63.99c-17.67 0-31.995 14.325-31.995 31.995v325.44c0 8.485 3.37 16.623 9.371 22.623l351.945 351.945c12.495 12.495 32.753 12.495 45.248 0l325.44-325.44c12.494-12.494 12.494-32.752 0-45.247L550.697 180.011c-6-6-14.138-9.371-22.624-9.371H202.635zM341.28 426.6c-47.12 0-85.32-38.2-85.32-85.32 0-47.12 38.2-85.32 85.32-85.32 47.12 0 85.32 38.2 85.32 85.32 0 47.12-38.2 85.32-85.32 85.32z m0-63.99c11.78 0 21.33-9.55 21.33-21.33 0-11.78-9.55-21.33-21.33-21.33-11.78 0-21.33 9.55-21.33 21.33 0 11.78 9.55 21.33 21.33 21.33z" p-id="9349" fill="#bfbfbf"></path></svg>