<?xml version="1.0" standalone="no"?><!DOCTYPE svg PUBLIC "-//W3C//DTD SVG 1.1//EN" "http://www.w3.org/Graphics/SVG/1.1/DTD/svg11.dtd"><svg t="1598065935040" class="icon" viewBox="0 0 1024 1024" version="1.1" xmlns="http://www.w3.org/2000/svg" p-id="6251" width="64" height="64" xmlns:xlink="http://www.w3.org/1999/xlink"><defs><style type="text/css"></style></defs><path d="M844.618752 460.699648c77.684736 0 179.16416-76.78464 179.16416-76.78464L819.023872 0 665.458688 0l51.18976 383.915008C716.648448 383.915008 766.835712 460.699648 844.618752 460.699648zM511.888384 460.699648c87.532544 0 127.975424-76.78464 127.975424-76.78464L614.268928 0 435.104768 0l-51.185664 383.915008C383.919104 383.915008 424.306688 460.699648 511.888384 460.699648zM819.023872 537.485312c-99.3792 0-146.367488-101.228544-146.367488-101.228544s-24.794112 101.228544-160.768 101.228544c-135.771136 0-153.56416-102.380544-153.56416-102.380544s-55.589888 102.380544-153.56928 102.380544c-104.6784 0-153.565184-76.78464-153.565184-76.78464l0 511.893504c0 48.490496 12.895232 51.18976 51.185664 51.18976l255.9488 0c0 0 0-190.862336 0-255.9488 0-65.083392 53.687296-127.970304 153.56416-127.970304 100.881408 0 153.570304 60.286976 153.570304 127.970304 0 34.893824 0 255.9488 0 255.9488l255.944704 0c34.192384 0 51.188736-6.298624 51.188736-51.18976L972.592128 460.699648C972.593152 460.699648 914.60608 537.485312 819.023872 537.485312zM307.134464 383.915008l76.78464-383.915008-153.56928 0L0 383.915008c0 0 89.629696 76.78464 179.160064 76.78464C268.64128 460.699648 307.134464 383.915008 307.134464 383.915008z" p-id="6252" fill="#bfbfbf"></path></svg>