<?xml version="1.0" standalone="no"?><!DOCTYPE svg PUBLIC "-//W3C//DTD SVG 1.1//EN" "http://www.w3.org/Graphics/SVG/1.1/DTD/svg11.dtd"><svg t="1598066119611" class="icon" viewBox="0 0 1040 1024" version="1.1" xmlns="http://www.w3.org/2000/svg" p-id="6526" xmlns:xlink="http://www.w3.org/1999/xlink" width="65" height="64"><defs><style type="text/css"></style></defs><path d="M528.531945 747.150575h-40.977146a132.600203 132.600203 0 0 1-132.139785-132.139785V598.896182a26.24379 26.24379 0 0 1 52.48758 0v14.733356a79.652205 79.652205 0 0 0 79.652205 79.652205h40.977146a79.652205 79.652205 0 0 0 79.652205-79.652205V598.896182a79.652205 79.652205 0 0 0-79.652205-79.652205h-40.977146a132.600203 132.600203 0 0 1-132.600202-131.218951v-6.90626a132.600203 132.600203 0 0 1 131.679368-132.139786h41.437563a132.600203 132.600203 0 0 1 132.139785 132.139786v6.90626a26.24379 26.24379 0 0 1-52.48758 0v-6.90626a79.652205 79.652205 0 0 0-79.652205-79.652205h-40.977146a79.652205 79.652205 0 0 0-79.191788 79.652205v6.90626a79.652205 79.652205 0 0 0 79.652205 79.652205h40.977146A132.600203 132.600203 0 0 1 660.671731 598.896182v14.733356a132.600203 132.600203 0 0 1-132.139786 133.521037z" fill="#bfbfbf" p-id="6527"></path><path d="M507.352746 818.05485a26.24379 26.24379 0 0 1-26.24379-26.24379V214.447678a26.24379 26.24379 0 1 1 52.48758 0v577.363382a26.24379 26.24379 0 0 1-26.24379 26.24379z" fill="#bfbfbf" p-id="6528"></path><path d="M931.213596 733.517659m-28.087758 101.625483a105.435578 105.435578 0 1 0 56.175516-203.250967 105.435578 105.435578 0 1 0-56.175516 203.250967Z" fill="#bfbfbf" p-id="6529"></path><path d="M815.371967 833.709041a442.000675 442.000675 0 1 1 101.291821-501.854934 450.288188 450.288188 0 0 1 29.466712 92.083474A34.531303 34.531303 0 1 0 1013.811854 410.12506a517.969541 517.969541 0 0 0-34.070886-106.356413A511.984116 511.984116 0 1 0 872.924138 875.146604a152.39815 152.39815 0 0 1-57.552171-41.437563z" fill="#bfbfbf" p-id="6530"></path><path d="M944.749248 716.763028a34.99172 34.99172 0 0 0-46.041737 12.891687 441.540258 441.540258 0 0 1-48.804241 68.602188 104.514743 104.514743 0 0 0 54.789667 36.83339h5.525008a511.523698 511.523698 0 0 0 49.264659-71.82511 34.99172 34.99172 0 0 0-14.733356-46.502155z" fill="#bfbfbf" p-id="6531"></path></svg>