<?xml version="1.0" standalone="no"?><!DOCTYPE svg PUBLIC "-//W3C//DTD SVG 1.1//EN" "http://www.w3.org/Graphics/SVG/1.1/DTD/svg11.dtd"><svg t="1598064561501" class="icon" viewBox="0 0 1024 1024" version="1.1" xmlns="http://www.w3.org/2000/svg" p-id="4464" xmlns:xlink="http://www.w3.org/1999/xlink" width="64" height="64"><defs><style type="text/css"></style></defs><path d="M810.7 128H213.3c-46.9 0-85.3 38.4-85.3 85.3v469.3c0 46.9 38.4 85.3 85.3 85.3h212.5l67.7 117.3c8.2 14.2 28.7 14.2 36.9 0L598.2 768h212.5c46.9 0 85.3-38.4 85.3-85.3V213.3c0-46.9-38.4-85.3-85.3-85.3z m-256 549.4h-85.3c-23.5 0-42.7-19.2-42.7-42.7 0-23.5 19.2-42.7 42.7-42.7h85.3c23.5 0 42.7 19.2 42.7 42.7-0.1 23.5-19.3 42.7-42.7 42.7z m105.9-371.1L529.8 502.5c-8.4 12.7-27.1 12.7-35.5 0L363.4 306.3c-9.5-14.2 0.7-33.2 17.8-33.2h45.5v-46.6c0-23.5 19.2-42.7 42.7-42.7h85.3c23.5 0 42.7 19.2 42.7 42.7v46.6h45.5c16.9 0 27.1 19 17.7 33.2z" p-id="4465" fill="#8a8a8a"></path></svg>