<?xml version="1.0" standalone="no"?><!DOCTYPE svg PUBLIC "-//W3C//DTD SVG 1.1//EN" "http://www.w3.org/Graphics/SVG/1.1/DTD/svg11.dtd"><svg t="1598064520935" class="icon" viewBox="0 0 1024 1024" version="1.1" xmlns="http://www.w3.org/2000/svg" p-id="4221" xmlns:xlink="http://www.w3.org/1999/xlink" width="64" height="64"><defs><style type="text/css"></style></defs><path d="M970.914322 158.896552C961.242483 158.896552 953.37931 151.031084 953.37931 141.396303L953.37931 741.362317C953.37931 731.803083 961.204259 723.862069 971.158687 723.862069L512 723.862069 392.827586 723.862069C385.739052 723.862069 378.814623 725.995555 372.955242 729.984918L165.506966 871.226297 220.689655 900.413793 220.689655 759.172414C220.689655 739.671058 204.880666 723.862069 185.37931 723.862069L53.114545 723.862069C62.757606 723.862069 70.62069 731.714701 70.62069 741.362317L70.62069 141.396303C70.62069 151.04429 62.784547 158.896552 53.085678 158.896552L970.914322 158.896552ZM0 141.396303 0 741.362317C0 770.738476 23.775887 794.482759 53.114545 794.482759L185.37931 794.482759 150.068966 759.172414 150.068966 900.413793C150.068966 928.772255 181.810564 945.561194 205.251655 929.601289L412.69993 788.35991 392.827586 794.482759 512 794.482759 971.158687 794.482759C1000.441626 794.482759 1024 770.574954 1024 741.362317L1024 141.396303C1024 112.03298 1000.249821 88.275862 970.914322 88.275862L53.085678 88.275862C23.749275 88.275862 0 112.074028 0 141.396303ZM741.547538 388.413793C761.048894 388.413793 776.857882 372.604804 776.857882 353.103448 776.857882 333.602092 761.048894 317.793103 741.547538 317.793103L264.827586 317.793103C245.32623 317.793103 229.517241 333.602092 229.517241 353.103448 229.517241 372.604804 245.32623 388.413793 264.827586 388.413793L741.547538 388.413793ZM264.827586 494.344828C245.32623 494.344828 229.517241 510.153816 229.517241 529.655172 229.517241 549.156529 245.32623 564.965517 264.827586 564.965517L741.547538 564.965517C761.048894 564.965517 776.857882 549.156529 776.857882 529.655172 776.857882 510.153816 761.048894 494.344828 741.547538 494.344828L264.827586 494.344828Z" p-id="4222" fill="#8a8a8a"></path></svg>