<?xml version="1.0" standalone="no"?><!DOCTYPE svg PUBLIC "-//W3C//DTD SVG 1.1//EN" "http://www.w3.org/Graphics/SVG/1.1/DTD/svg11.dtd"><svg t="1598064680914" class="icon" viewBox="0 0 1024 1024" version="1.1" xmlns="http://www.w3.org/2000/svg" p-id="5681" xmlns:xlink="http://www.w3.org/1999/xlink" width="64" height="64"><defs><style type="text/css"></style></defs><path d="M832.015989 408.290987c0.397043 6.132674 1.101077 12.175297 1.101077 18.373463 0 13.563924-1.324158 26.819832-3.241834 39.987736 28.761044 33.636075 46.029336 74.991971 46.029336 119.986745 0 71.130014-42.700521 133.549645-107.015316 169.722496l0 75.564-31.497365-20.754696 0.089028-0.109494-41.664935-27.636431c-17.798365 3.6399-36.282345 5.845125-55.405891 5.845125-55.416124 0-106.23351-16.585747-146.44228-44.178175-11.67797 0.925069-23.467481 1.499144-35.45449 1.499144-8.504698 0-16.873296-0.574075-25.232684-1.059122 50.916647 49.626257 124.661208 81.07962 207.129454 81.07962 17.535375 0 34.56319-1.544169 51.192939-4.28049l119.986745 73.624834L811.589774 774.97639c65.044412-44.464701 107.015316-113.413026 106.949824-190.985776C918.540621 514.7793 885.148094 452.513164 832.015989 408.290987zM619.005594 469.232964c23.644513 0 42.779316-19.034519 42.779316-42.61354 0-23.577998-19.133779-42.635029-42.779316-42.635029-23.64349 0-42.854017 19.057031-42.854017 42.635029C576.151577 450.198445 595.362104 469.232964 619.005594 469.232964zM276.603247 383.984395c-23.653723 0-42.753733 19.057031-42.753733 42.635029 0 23.579021 19.10001 42.61354 42.753733 42.61354 23.655769 0 42.868343-19.034519 42.868343-42.61354C319.470567 403.041426 300.259016 383.984395 276.603247 383.984395zM790.151509 426.619424c0-164.869978-153.268756-298.575166-342.392114-298.575166-189.033307 0-342.302063 133.705188-342.302063 298.575166 0 94.291526 50.134841 178.237427 128.391159 232.913701l0 151.087067 149.959384-90.718141c20.711717 3.396353 42.104957 5.27105 63.951521 5.27105C636.882753 725.172077 790.151509 591.446423 790.151509 426.619424zM380.643811 668.532079l-93.563956 57.017598 1.312902-93.542466c-71.771627-43.647079-118.772081-115.992781-118.772081-197.954491 0-133.462664 124.574227-241.780649 278.149974-241.780649 153.644309 0 278.242072 108.317984 278.242072 241.780649 0 133.61616-124.597763 241.780649-278.242072 241.780649C424.56923 675.833369 402.171104 673.16561 380.643811 668.532079zM490.616482 426.619424c0-23.577998-19.200294-42.635029-42.856064-42.635029-23.566742 0-42.753733 19.057031-42.753733 42.635029 0 23.579021 19.186991 42.61354 42.753733 42.61354C471.416188 469.232964 490.616482 450.198445 490.616482 426.619424z" p-id="5682" fill="#bfbfbf"></path></svg>